<?xml version="1.0" standalone="no"?>
<!DOCTYPE svg PUBLIC "-//W3C//DTD SVG 20010904//EN"
 "http://www.w3.org/TR/2001/REC-SVG-20010904/DTD/svg10.dtd">
<svg version="1.0" xmlns="http://www.w3.org/2000/svg"
 width="1024.000000pt" height="1024.000000pt" viewBox="0 0 1024.000000 1024.000000"
 preserveAspectRatio="xMidYMid meet">

<g transform="translate(0.000000,1024.000000) scale(0.100000,-0.100000)"
fill="#000000" stroke="none">
<path d="M1381 8431 c-35 -35 -39 -65 -118 -836 -32 -311 -37 -395 -37 -615
-1 -232 1 -262 21 -332 32 -114 83 -209 180 -338 146 -194 159 -240 157 -545
-3 -343 -60 -1172 -165 -2400 -24 -272 -21 -465 6 -555 69 -225 267 -366 466
-331 215 38 356 217 375 478 3 48 1 147 -5 218 -6 72 -31 371 -55 665 -72 860
-108 1479 -109 1885 0 216 2 248 21 319 12 44 34 101 50 128 31 55 145 191
150 178 2 -5 -8 -46 -22 -92 -218 -717 -135 -1550 221 -2218 443 -832 1237
-1400 2154 -1540 710 -109 1444 56 2047 461 238 159 447 348 617 554 367 449
580 920 667 1480 18 118 22 184 22 425 1 298 -5 369 -50 595 -80 408 -268 832
-517 1169 -405 547 -988 932 -1652 1091 -570 137 -1182 105 -1720 -90 -676
-245 -1229 -738 -1594 -1420 l-21 -40 7 50 c17 109 4 371 -36 770 -57 558 -90
823 -106 861 -25 61 -106 59 -132 -4 -25 -59 -8 -462 43 -1011 24 -271 29
-540 11 -644 -20 -112 -65 -209 -146 -310 -174 -219 -210 -332 -211 -662 0
-366 66 -1465 142 -2340 11 -137 22 -317 22 -400 1 -137 -1 -154 -22 -200 -85
-184 -290 -209 -392 -49 -57 90 -62 185 -30 585 11 140 22 268 25 284 8 45 42
479 64 820 51 753 65 1033 65 1295 0 254 -1 281 -22 354 -26 95 -72 181 -156
296 -85 115 -100 142 -133 235 -28 80 -28 80 -27 330 0 188 7 320 27 535 29
298 54 820 43 864 -15 61 -85 87 -125 47z m4137 -320 c412 -63 773 -204 1127
-442 501 -338 866 -828 1060 -1425 154 -476 165 -1034 29 -1533 -159 -583
-506 -1103 -984 -1472 -646 -499 -1503 -683 -2275 -488 -522 132 -957 385
-1335 775 -395 407 -644 922 -737 1524 -25 162 -25 576 0 743 93 618 371 1159
820 1594 194 188 384 325 617 447 320 167 629 255 1045 300 104 11 504 -4 633
-23z"/>
<path d="M4970 7694 c-236 -20 -385 -50 -590 -117 -179 -58 -401 -166 -557
-270 -441 -295 -784 -777 -922 -1297 -59 -222 -75 -351 -75 -600 -1 -234 5
-295 50 -495 55 -252 146 -477 281 -700 345 -567 894 -943 1563 -1072 196 -37
497 -43 693 -14 837 126 1515 669 1824 1461 103 262 142 456 150 736 9 301
-24 532 -113 803 -271 826 -993 1426 -1859 1545 -113 16 -365 27 -445 20z
m421 -229 c481 -64 970 -323 1273 -676 436 -507 612 -1157 485 -1784 -52 -254
-201 -601 -347 -804 -265 -371 -625 -636 -1062 -782 -224 -75 -392 -101 -636
-100 -320 1 -595 64 -889 205 -239 115 -394 224 -575 406 -317 317 -528 734
-596 1179 -22 144 -22 449 1 596 64 423 225 767 517 1105 180 208 488 417 787
535 121 47 338 103 466 120 137 18 445 18 576 0z"/>
<path d="M4256 6820 c-224 -36 -421 -135 -582 -295 -128 -127 -217 -275 -270
-450 -23 -78 -27 -108 -28 -225 -1 -155 17 -230 79 -335 45 -76 93 -119 175
-158 113 -54 225 -39 309 41 46 43 61 86 39 108 -13 13 -21 12 -63 -10 -153
-82 -315 52 -344 283 -12 95 -1 234 26 316 83 257 325 474 591 530 89 19 270
19 352 -1 36 -8 97 -30 135 -49 223 -110 357 -311 396 -595 16 -120 13 -432
-5 -564 -72 -505 -307 -867 -601 -926 -72 -15 -169 -7 -256 20 -106 32 -105
30 -52 139 93 193 171 448 258 846 132 600 159 713 178 755 12 24 47 72 79
105 32 33 58 67 58 76 0 30 -38 53 -88 53 -137 -1 -276 -149 -341 -364 -39
-128 -92 -341 -175 -702 -47 -202 -99 -416 -116 -475 -35 -122 -88 -273 -101
-287 -4 -5 -30 1 -61 14 -119 52 -198 61 -288 34 -167 -50 -227 -185 -139
-318 91 -137 339 -137 551 0 26 17 28 17 95 -13 130 -59 169 -68 293 -67 97 0
127 4 195 27 130 43 226 106 346 226 271 271 438 655 480 1101 26 285 -36 574
-167 772 -124 188 -324 323 -554 375 -79 17 -323 25 -404 13z m-441 -2310 l30
-12 -35 -18 c-35 -19 -149 -27 -184 -14 -19 7 -21 50 -3 58 20 9 160 -1 192
-14z"/>
<path d="M6020 6742 c-191 -53 -351 -201 -412 -380 -18 -54 -22 -89 -22 -177
-1 -219 65 -362 303 -660 239 -298 335 -447 381 -585 27 -81 38 -259 21 -341
-30 -142 -123 -264 -249 -326 -73 -37 -80 -38 -182 -38 -95 0 -110 3 -163 29
-65 32 -148 109 -176 164 -42 82 -54 149 -49 271 6 132 27 201 82 272 53 66
99 89 176 89 107 0 160 -50 160 -153 0 -61 -14 -100 -49 -131 -28 -26 -28 -56
2 -56 62 1 143 65 175 140 20 50 12 162 -17 219 -33 64 -106 137 -167 167
-193 94 -424 -18 -549 -266 -68 -136 -91 -291 -61 -430 20 -94 81 -219 141
-287 103 -117 273 -197 443 -209 291 -21 591 160 718 433 89 190 90 394 3 612
-45 113 -99 194 -352 529 -300 399 -334 469 -325 666 5 105 32 170 98 236 62
62 113 84 195 84 82 0 119 -16 183 -77 56 -54 82 -125 82 -221 0 -115 -22
-169 -102 -249 -37 -37 -68 -72 -68 -77 0 -5 12 -18 28 -30 23 -19 36 -21 89
-17 139 11 246 127 275 297 21 122 -14 250 -95 354 -37 46 -142 116 -212 140
-75 27 -225 30 -305 8z"/>
<path d="M1814 8440 c-48 -19 -51 -49 -65 -803 -13 -676 -11 -708 38 -747 38
-30 67 -34 106 -15 60 28 62 43 60 395 -3 528 -20 1091 -33 1128 -18 48 -55
63 -106 42z"/>
<path d="M8515 8433 c-132 -18 -266 -104 -369 -238 -85 -109 -116 -161 -179
-295 -125 -264 -174 -501 -164 -787 10 -299 75 -456 305 -728 105 -124 157
-209 187 -305 54 -173 17 -902 -126 -2460 -51 -563 -55 -643 -35 -748 39 -219
170 -362 358 -394 168 -29 355 76 438 246 54 112 70 271 51 506 -6 80 -29 366
-51 635 -123 1537 -148 2008 -114 2172 28 136 66 203 204 363 183 212 259 369
290 598 59 430 -134 1040 -409 1295 -69 63 -180 122 -260 137 -54 10 -70 10
-126 3z m139 -239 c59 -20 159 -111 216 -196 154 -230 252 -611 237 -918 -9
-189 -73 -346 -208 -510 -181 -221 -244 -327 -275 -468 -24 -108 -28 -314 -11
-562 19 -262 31 -456 52 -815 22 -370 63 -872 101 -1245 9 -85 17 -254 18
-375 1 -210 0 -222 -22 -270 -44 -96 -124 -155 -209 -155 -91 1 -162 51 -204
145 -33 74 -36 233 -10 515 66 704 135 1603 172 2230 20 348 3 527 -66 677
-40 87 -71 132 -165 243 -182 216 -254 375 -266 590 -23 395 157 897 381 1065
32 24 72 47 89 53 48 15 118 14 170 -4z"/>
</g>
</svg>
